<?xml version="1.0" encoding="UTF-8"?><svg id="_Ñëîé_1" xmlns="http://www.w3.org/2000/svg" viewBox="0 0 905.54 905.54"><defs><style>.cls-1{fill:#eb839c;}.cls-1,.cls-2,.cls-3,.cls-4{stroke-width:0px;}.cls-2{fill:#3a4433;}.cls-3{fill:#e09bc0;}.cls-4{fill:#fff;}</style></defs><path class="cls-3" d="M490.19,876.47h0c-30.62,0-55.45-24.83-55.45-55.45v-19.29c0-30.62,24.83-55.45,55.45-55.45h0c30.62,0,55.45,24.83,55.45,55.45v19.29c0,30.62-24.83,55.45-55.45,55.45Z"/><path class="cls-3" d="M524.98,795.08h-76.36S141.82,586.41,228.16,179.51c63.55-17.59,150.14-34.86,253.64-36.52,118.88-1.9,217.25,17.49,286.02,36.52,9.8,77.61,27.75,306.75-124.12,500.8-37.95,48.49-79.59,85.95-118.73,114.77Z"/><path class="cls-3" d="M770.7,204.5c-184.89-18.72-371.3-18.72-556.2,0-31.23,3.15-56.5-18.2-56.49-48.47h0c0-30.24,25.27-57.93,56.49-61.08,184.89-18.72,371.3-18.72,556.2,0,31.23,3.15,56.49,30.84,56.49,61.08h0c0,30.26-25.26,51.62-56.49,48.47Z"/><path class="cls-1" d="M229.57,208.42c138.87,25.87,281.02,33.53,421.84,22.25,39.36-3.15,78.58-7.8,117.6-13.8,9.17-1.41,5.28-15.35-3.85-13.95-137.53,21.16-277.86,24-416.17,8.74-38.73-4.28-77.28-10.05-115.59-17.19-9.1-1.69-13,12.24-3.84,13.95h0Z"/><path class="cls-4" d="M474.92,715.48c-78.25-48.41-137-126.22-163.73-214.15-7.47-24.58-12.45-49.86-14.66-75.46-.8-9.2-15.27-9.29-14.46,0,8.24,95.46,52.52,186.57,121.76,252.75,19.47,18.61,40.9,35.18,63.8,49.35,7.94,4.91,15.21-7.6,7.3-12.49h0Z"/><path class="cls-2" d="M374.8,385.12c-.81,1.12-1.99,1.85-3.33,2.07-1.36.22-2.73-.1-3.85-.88-1.12-.81-1.88-2.01-2.1-3.38l-.53-3.29c-1.97-12.6-6.57-42.1-17.94-49.78-2.44-1.65-4.99-2.08-8-1.38-6.58,1.54-16.45,24.12-21.76,36.23-3.17,7.25-5.9,13.49-8.23,17.2-.74,1.17-1.89,1.98-3.25,2.3-1.33.3-2.7.06-3.87-.68-1.17-.74-1.98-1.89-2.28-3.22-.3-1.34-.08-2.73.68-3.87,1.92-3.09,4.51-8.99,7.5-15.85,8.59-19.65,15.67-34.54,24.21-40.07,1.48-1,3.05-1.68,4.64-2.06,1.62-.38,3.21-.58,4.76-.59.9,0,1.78.03,2.63.15,3.1.38,5.99,1.48,8.72,3.3,15.11,10.19,19.85,40.46,22.37,56.71l.53,3.24c.23,1.36-.09,2.73-.91,3.85ZM357.12,333.48c2.65,4.3,4.82,9.58,6.56,15.15-1.68-5.57-3.83-10.85-6.56-15.15Z"/><path class="cls-2" d="M655.55,387.42c-.79,1.09-1.99,1.85-3.35,2.07-2.83.44-5.45-1.46-5.9-4.29l-.53-3.29c-1.97-12.58-6.57-42.1-17.96-49.75-2.44-1.65-5-2.11-8-1.38-6.55,1.51-16.45,24.09-21.75,36.26-3.17,7.22-5.9,13.46-8.23,17.17-.74,1.17-1.89,1.98-3.22,2.28-1.36.3-2.73.06-3.9-.65-1.17-.74-1.95-1.89-2.28-3.22-.3-1.34-.06-2.73.68-3.9,1.92-3.06,4.51-8.99,7.53-15.85,10.1-23.07,18.09-39.62,28.83-42.13,1.62-.38,3.21-.58,4.78-.59,4.04-.04,7.84,1.12,11.32,3.45,15.11,10.19,19.85,40.48,22.4,56.74l.5,3.24c.22,1.37-.1,2.71-.91,3.85ZM618.65,325.74c-.26.06-.51.13-.77.24.26-.08.49-.16.74-.21.05,0,.13-.03.18-.05-.05,0-.1.03-.15.03ZM637.22,334.74c4.43,6.7,7.49,16.04,9.68,25.09-2.13-9.12-5.18-18.41-9.68-25.09Z"/><path class="cls-2" d="M522.74,457.36c-.98-2.8-2.27-4.35-3.63-4.35-2.83,0-5.15,6.64-5.15,14.76-.03,17.86-2.94,35.93-8.01,49.66-5.1,13.72-11.57,20.88-17.8,19.99-6.21-1.03-12.34-10.4-16.85-25.75-4.51-15.35-6.67-34.23-5.95-52.02.15-3.91-.23-7.75-1.08-10.85-.85-3.1-2.09-5.02-3.45-5.46-2.78-.88-5.38,4.87-5.69,12.99-1.06,25.75,1.98,52.83,8.29,74.3,6.31,21.55,15.1,34.75,24.14,36.23.59.07,1.16.15,1.75.15,8.45,0,17.08-10.26,23.7-28.11,7.14-19.26,11.23-45.16,11.26-71.05,0-3.98-.54-7.67-1.52-10.48Z"/></svg>